<?xml version="1.0" encoding="utf-8"?>
<!-- Generator: Adobe Illustrator 17.1.0, SVG Export Plug-In . SVG Version: 6.00 Build 0)  -->
<!DOCTYPE svg PUBLIC "-//W3C//DTD SVG 1.1//EN" "http://www.w3.org/Graphics/SVG/1.1/DTD/svg11.dtd">
<svg version="1.1" id="Ebene_1" xmlns="http://www.w3.org/2000/svg" xmlns:xlink="http://www.w3.org/1999/xlink" x="0px" y="0px"
	 viewBox="0 0 64 64" enable-background="new 0 0 64 64" xml:space="preserve">
<g>
	<path fill="#4A4D4E" d="M38.5,13.6c-0.8-0.8-2-0.8-2.8-0.1l-18,17C17.2,30.9,17,31.5,17,32s0.2,1.1,0.6,1.5l18,17
		C36,50.8,36.5,51,37,51c0.5,0,1.1-0.2,1.5-0.6c0.8-0.8,0.7-2.1-0.1-2.8L21.9,32l16.5-15.5C39.2,15.7,39.2,14.4,38.5,13.6z"/>
	<path fill="#4A4D4E" d="M32,0C23.5,0,15.4,3.3,9.4,9.4C3.3,15.4,0,23.5,0,32s3.3,16.6,9.4,22.6c6,6,14.1,9.4,22.6,9.4
		s16.6-3.3,22.6-9.4c6-6,9.4-14.1,9.4-22.6s-3.3-16.6-9.4-22.6C48.6,3.3,40.5,0,32,0z M51.8,51.8C46.5,57.1,39.5,60,32,60
		s-14.5-2.9-19.8-8.2C6.9,46.5,4,39.5,4,32s2.9-14.5,8.2-19.8C17.5,6.9,24.5,4,32,4s14.5,2.9,19.8,8.2C57.1,17.5,60,24.5,60,32
		S57.1,46.5,51.8,51.8z"/>
</g>
</svg>
