<?xml version="1.0" encoding="utf-8"?>
<!-- Generator: Adobe Illustrator 17.1.0, SVG Export Plug-In . SVG Version: 6.00 Build 0)  -->
<!DOCTYPE svg PUBLIC "-//W3C//DTD SVG 1.1//EN" "http://www.w3.org/Graphics/SVG/1.1/DTD/svg11.dtd">
<svg version="1.1" id="ru" xmlns="http://www.w3.org/2000/svg" xmlns:xlink="http://www.w3.org/1999/xlink" x="0px" y="0px"
	 viewBox="0 51.6 1125 773.4" enable-background="new 0 51.6 1125 773.4" xml:space="preserve">
<path fill="none" d="M1089.8,420.7"/>
<g>
	<path fill="#DB3826" d="M1089.8,51.6H35.2C15.8,51.6,0,67.4,0,86.7v703.1C0,809.2,15.8,825,35.2,825h492.2h70.3h492.2
		c19.3,0,35.2-15.8,35.2-35.2V86.7C1125,67.4,1109.2,51.6,1089.8,51.6z"/>
</g>
<g>
	<path fill="#465CAA" d="M1089.8,51.6H35.2C15.8,51.6,0,62.1,0,76.2v479.9c0,12.3,15.8,22.8,35.2,22.8h492.2h70.3h492.2
		c19.3,0,35.2-10.6,35.2-24.6V76.1C1125,62.1,1109.2,51.6,1089.8,51.6z"/>
</g>
<g>
	<path fill="#F8FCFF" d="M1089.8,51.6H35.2C15.8,51.6,0,56.8,0,63.9v239.1c0,7,15.8,12.3,35.2,12.3h492.2h70.3h492.2
		c19.3,0,35.2-5.3,35.2-12.3V63.9C1125,56.8,1109.2,51.6,1089.8,51.6z"/>
</g>
<polyline fill="#465CAA" points="1125,578.9 1125,550.3 1077.7,578.9 "/>
<polyline fill="#465CAA" points="31,578.9 0,578.9 0,544.3 "/>
<polyline fill="#F8FCFF" points="42.3,315.2 0,315.3 0,296.3 "/>
<polyline fill="#F8FCFF" points="1125,270.3 1125,315.3 1056,315.2 "/>
</svg>
