<?xml version="1.0" encoding="utf-8"?>
<!-- Generator: Adobe Illustrator 17.1.0, SVG Export Plug-In . SVG Version: 6.00 Build 0)  -->
<!DOCTYPE svg PUBLIC "-//W3C//DTD SVG 1.1//EN" "http://www.w3.org/Graphics/SVG/1.1/DTD/svg11.dtd">
<svg version="1.1" id="Layer_1" xmlns="http://www.w3.org/2000/svg" xmlns:xlink="http://www.w3.org/1999/xlink" x="0px" y="0px"
	 viewBox="0 0 1125 774.4" enable-background="new 0 0 1125 774.4" xml:space="preserve">
<g id="ua">
	<g>
		<path fill="#DDD821" d="M1090.8,1H36.2C16.8,1,1,16.8,1,36.2v703.1c0,19.4,15.8,35.2,35.2,35.2h492.2h70.3h492.2
			c19.3,0,35.2-15.8,35.2-35.2V36.2C1126,16.8,1110.2,1,1090.8,1z"/>
	</g>
	<path fill="none" d="M1090.8,370.2"/>
	<g>
		<path fill="#32B5E4" d="M1090.8,1H36.2C16.8,1,1,8,1,18.6v351.6c0,10.6,15.8,17.6,35.2,17.6h492.2h70.3h492.2
			c19.3,0,35.2-7,35.2-17.6V18.6C1126,8,1110.2,1,1090.8,1z"/>
	</g>
	<polyline fill="#32B5E4" points="1126,335.7 1126,387.7 1050,387.8 	"/>
</g>
<polyline fill="#32B5E4" points="66.7,387.7 1,387.8 1,345.1 "/>
</svg>
