<?xml version="1.0" encoding="utf-8"?>
<!-- Generator: Adobe Illustrator 17.1.0, SVG Export Plug-In . SVG Version: 6.00 Build 0)  -->
<!DOCTYPE svg PUBLIC "-//W3C//DTD SVG 1.1//EN" "http://www.w3.org/Graphics/SVG/1.1/DTD/svg11.dtd">
<svg version="1.1" id="Ebene_1" xmlns="http://www.w3.org/2000/svg" xmlns:xlink="http://www.w3.org/1999/xlink" x="0px" y="0px"
	 viewBox="0 0 64 64" enable-background="new 0 0 64 64" xml:space="preserve">
<g>
	<path fill="#4A4D4E" d="M40,23c0-4.4-3.6-8-8-8s-8,3.6-8,8s3.6,8,8,8S40,27.4,40,23z M28,23c0-2.2,1.8-4,4-4s4,1.8,4,4s-1.8,4-4,4
		S28,25.2,28,23z"/>
	<path fill="#4A4D4E" d="M32,64c0.6,0,1.1-0.2,1.5-0.7c0.9-1,21.6-24.7,21.5-40.3C54.9,10.3,44.6,0,32,0C19.3,0,9,10.3,9,23
		c0,15.6,20.6,39.3,21.5,40.3C30.8,63.8,31.4,64,32,64z M32,4c10.4,0,19,8.5,19,19c0.1,11.8-14.3,30.1-19,35.9
		c-4.7-5.7-19-24-19-35.9C13,12.5,21.5,4,32,4z"/>
</g>
</svg>
