<?xml version="1.0" encoding="utf-8"?>
<!-- Generator: Adobe Illustrator 17.1.0, SVG Export Plug-In . SVG Version: 6.00 Build 0)  -->
<!DOCTYPE svg PUBLIC "-//W3C//DTD SVG 1.1//EN" "http://www.w3.org/Graphics/SVG/1.1/DTD/svg11.dtd">
<svg version="1.1" id="Ebene_1" xmlns="http://www.w3.org/2000/svg" xmlns:xlink="http://www.w3.org/1999/xlink" x="0px" y="0px"
	 viewBox="0 0 64 64" enable-background="new 0 0 64 64" xml:space="preserve">
<g>
	<path fill="#4A4D4E" d="M63.1,3.3c-0.5-0.4-1.2-0.4-1.9-0.2L42,10.8L22.7,3.1c-0.5-0.2-1-0.2-1.5,0l-20,8C0.5,11.4,0,12.2,0,13v46
		c0,0.7,0.3,1.3,0.9,1.7C1.2,60.9,1.6,61,2,61c0.3,0,0.5,0,0.7-0.1L22,53.2l19.3,7.7c0.5,0.2,1,0.2,1.5,0l20-8
		c0.8-0.3,1.3-1,1.3-1.9V5C64,4.3,63.7,3.7,63.1,3.3z M24,8l16,6.4V56l-16-6.4V8z M4,14.4L20,8v41.7L4,56V14.4z M60,49.6L44,56V14.4
		L60,8V49.6z"/>
</g>
</svg>
